<?xml version="1.0" standalone="no"?>
<!DOCTYPE svg PUBLIC "-//W3C//DTD SVG 20010904//EN"
 "http://www.w3.org/TR/2001/REC-SVG-20010904/DTD/svg10.dtd">
<svg version="1.0" xmlns="http://www.w3.org/2000/svg"
 width="1716.000000pt" height="1716.000000pt" viewBox="0 0 1716.000000 1716.000000"
 preserveAspectRatio="xMidYMid meet">
<metadata>
Created by potrace 1.14, written by Peter Selinger 2001-2017
</metadata>
<g transform="translate(0.000000,1716.000000) scale(0.100000,-0.100000)"
fill="#000000" stroke="none">
<path d="M5405 12088 c0 -1646 3 -2997 7 -3003 4 -7 463 -10 1350 -9 738 1
1345 2 1348 3 3 1 6 798 5 1771 0 1173 3 1770 10 1771 6 0 591 1 1300 1 1150
0 1489 -3 1590 -17 17 -3 59 -7 95 -10 70 -6 74 -7 195 -24 312 -46 704 -155
945 -264 277 -125 444 -220 665 -381 61 -44 112 -83 115 -86 3 -3 50 -44 105
-91 102 -89 281 -268 370 -373 28 -32 55 -63 60 -70 56 -60 265 -357 265 -376
0 -5 5 -10 10 -10 6 0 10 -5 10 -10 0 -6 11 -28 24 -49 86 -135 233 -456 300
-654 53 -155 122 -403 140 -500 14 -77 27 -145 31 -167 15 -72 41 -264 50
-365 4 -38 8 -86 10 -105 23 -226 23 -752 1 -975 -2 -16 -7 -66 -10 -109 -4
-43 -9 -86 -11 -95 -2 -9 -6 -44 -10 -76 -4 -33 -9 -69 -11 -80 -5 -26 -10
-50 -29 -165 -23 -132 -95 -409 -148 -565 -118 -346 -269 -648 -470 -935 -44
-63 -83 -117 -86 -120 -4 -3 -22 -25 -41 -50 -19 -25 -39 -50 -45 -56 -5 -6
-39 -44 -75 -85 -374 -421 -821 -737 -1320 -932 -145 -56 -399 -136 -485 -153
-11 -2 -31 -7 -45 -10 -42 -10 -269 -53 -318 -60 -64 -9 -68 -10 -147 -18 -38
-4 -80 -9 -93 -11 -99 -16 -431 -20 -1602 -20 l-1344 0 0 753 0 752 -25 1
c-148 4 -2670 1 -2677 -3 -5 -4 -9 -808 -9 -1990 l0 -1983 2835 0 c1559 0
2891 4 2960 9 133 9 144 10 260 20 100 9 146 14 200 21 25 3 65 8 90 11 75 9
284 42 310 49 8 2 33 6 54 10 22 3 91 16 155 30 716 148 1370 398 1969 750
169 99 499 328 628 434 17 14 40 33 50 41 208 162 537 480 729 704 28 33 55
64 60 70 21 22 203 253 242 306 318 437 573 902 740 1350 112 300 173 491 238
745 42 165 111 482 120 554 3 20 7 46 9 58 3 11 8 43 12 70 3 26 8 56 10 67 2
10 6 44 9 75 4 31 8 63 10 71 2 8 7 42 10 75 4 33 8 76 10 95 3 19 7 67 10
105 3 39 8 87 10 107 13 113 20 354 20 678 -1 364 -7 546 -30 790 -6 62 -8 85
-21 195 -5 50 -31 239 -39 284 -2 13 -7 45 -11 70 -8 59 -12 79 -18 99 -3 9
-7 33 -10 52 -10 70 -54 276 -76 365 -6 22 -13 51 -16 65 -3 14 -7 30 -8 35
-1 6 -8 28 -14 50 -6 22 -25 90 -42 150 -101 353 -250 735 -422 1080 -215 430
-514 865 -872 1270 -92 104 -341 352 -435 435 -41 36 -79 70 -85 75 -14 13
-125 106 -149 125 -11 8 -24 20 -31 25 -27 25 -250 189 -351 258 -498 340
-1083 612 -1697 786 -81 23 -158 44 -170 47 -32 7 -40 9 -63 17 -11 3 -31 8
-45 11 -14 3 -77 16 -140 31 -63 14 -151 32 -195 40 -44 8 -89 16 -100 19 -11
2 -56 9 -100 16 -44 6 -91 13 -105 16 -14 2 -45 7 -69 9 -24 3 -71 9 -105 15
-33 5 -95 12 -136 15 -41 3 -86 8 -100 10 -14 2 -72 7 -130 10 -58 4 -121 9
-140 12 -19 3 -1338 8 -2930 10 l-2895 4 0 -2993z"/>
<path d="M440 14860 c-4 -3 -7 -371 -6 -819 l1 -815 715 -1 c393 0 723 1 733
3 16 4 17 51 17 821 l0 816 -726 0 c-399 0 -730 -2 -734 -5z"/>
<path d="M2720 13722 c-7 -3 -10 -284 -10 -818 l0 -814 735 0 735 0 -2 817 -3
817 -723 1 c-397 0 -727 -1 -732 -3z"/>
<path d="M0 10580 l0 -1500 1344 0 c1066 0 1345 3 1348 13 2 6 3 680 3 1497
l-1 1485 -1347 3 -1347 2 0 -1500z"/>
<path d="M2710 7589 c0 -1189 3 -1498 13 -1501 6 -2 613 -4 1347 -4 l1335 1 0
1498 c0 823 -2 1498 -5 1498 -3 1 -609 2 -1348 3 l-1342 1 0 -1496z"/>
</g>
</svg>
